<svg xmlns="http://www.w3.org/2000/svg" viewBox="0 0 128 128" role="img" aria-labelledby="title desc">
  <title>Bookmarklet Bridge Icon</title>
  <desc>A stylized bookmark suspended over a small bridge.</desc>
  <defs>
    <linearGradient id="bg" x1="18" y1="14" x2="110" y2="114" gradientUnits="userSpaceOnUse">
      <stop offset="0" stop-color="#fff5d8"/>
      <stop offset="0.55" stop-color="#f2d58f"/>
      <stop offset="1" stop-color="#d69a4d"/>
    </linearGradient>
    <linearGradient id="bookmark" x1="56" y1="24" x2="82" y2="88" gradientUnits="userSpaceOnUse">
      <stop offset="0" stop-color="#fffdf6"/>
      <stop offset="1" stop-color="#f7ebd2"/>
    </linearGradient>
    <linearGradient id="bridge" x1="25" y1="68" x2="103" y2="108" gradientUnits="userSpaceOnUse">
      <stop offset="0" stop-color="#2f7f72"/>
      <stop offset="1" stop-color="#184e3d"/>
    </linearGradient>
    <filter id="shadow" x="-20%" y="-20%" width="140%" height="140%">
      <feDropShadow dx="0" dy="4" stdDeviation="4" flood-color="#6e4d1f" flood-opacity="0.16"/>
    </filter>
  </defs>
  <rect x="10" y="10" width="108" height="108" rx="28" fill="url(#bg)"/>
  <g filter="url(#shadow)">
    <path d="M64 24c-11.046 0-20 8.954-20 20v45.5c0 1.203 1.385 1.89 2.348 1.164L64 78.4l17.652 12.264C82.615 91.39 84 90.703 84 89.5V44c0-11.046-8.954-20-20-20Z" fill="url(#bookmark)"/>
    <path d="M64 30c-7.732 0-14 6.268-14 14v35.853l12.287-8.532a3 3 0 0 1 3.426 0L78 79.853V44c0-7.732-6.268-14-14-14Z" fill="#fefefe"/>
    <path d="M78 44c0-7.732-6.268-14-14-14v41.321a3 3 0 0 1 1.713.532L78 79.853V44Z" fill="#f4e2b6" opacity=".85"/>
  </g>
  <g>
    <path d="M22 92c8.923-12.97 21.863-19.455 38.819-19.455C77.78 72.545 90.84 79.03 100 92" fill="none" stroke="url(#bridge)" stroke-linecap="round" stroke-width="11"/>
    <path d="M29 92h70" stroke="#184e3d" stroke-linecap="round" stroke-width="10"/>
    <path d="M40 74v22M52 71v25M64 70v26M76 71v25M88 74v22" stroke="#184e3d" stroke-linecap="round" stroke-width="6"/>
  </g>
  <circle cx="97" cy="33" r="8" fill="#9e3d1f"/>
  <path d="M95 28h4v10h-4zM92 31h10v4H92z" fill="#fff7f0"/>
</svg>
